<svg xmlns="http://www.w3.org/2000/svg" viewBox="0 0 800 500" role="img" aria-label="פלפל וסבון"><rect width="800" height="500" fill="#EAF6FF"/><ellipse cx="400" cy="300" rx="320" ry="140" fill="#fff" stroke="#B8CDE0" stroke-width="10"/><ellipse cx="400" cy="300" rx="270" ry="105" fill="#CFE9FF"/><g fill="#555"><circle cx="160" cy="300" r="5"/><circle cx="180" cy="260" r="4"/><circle cx="175" cy="340" r="5"/><circle cx="640" cy="300" r="5"/><circle cx="620" cy="255" r="4"/><circle cx="625" cy="345" r="5"/><circle cx="300" cy="215" r="4"/><circle cx="500" cy="215" r="5"/><circle cx="300" cy="385" r="5"/><circle cx="500" cy="388" r="4"/><circle cx="220" cy="230" r="4"/><circle cx="580" cy="370" r="4"/><circle cx="215" cy="372" r="4"/><circle cx="585" cy="228" r="5"/><circle cx="400" cy="205" r="4"/><circle cx="400" cy="398" r="4"/></g><g fill="none" stroke="#9FC8EE" stroke-width="5"><ellipse cx="400" cy="300" rx="60" ry="24"/><ellipse cx="400" cy="300" rx="120" ry="48" opacity=".7"/><ellipse cx="400" cy="300" rx="180" ry="72" opacity=".4"/></g><path d="M380 120q20-40 40 0v170q-20 20-40 0z" fill="#FFD3B5" stroke="#E6A27E" stroke-width="5"/><circle cx="400" cy="292" r="14" fill="#F7B7E0" opacity=".9"/><g fill="#fff" stroke="#F7B7E0" stroke-width="4"><circle cx="440" cy="250" r="10"/><circle cx="460" cy="225" r="7"/></g></svg>
